<mxfile host="app.diagrams.net" modified="2022-02-20T01:17:23.198Z" agent="5.0 (Macintosh; Intel Mac OS X 10_15_7) AppleWebKit/537.36 (KHTML, like Gecko) Chrome/98.0.4758.102 Safari/537.36" etag="FoN9sGPhso2yvKyXTlDv" version="16.6.1" type="github">
  <diagram id="XduwSxE3LopDNXnJAMAh" name="Page-1">
    <mxGraphModel dx="1796" dy="1604" grid="1" gridSize="10" guides="1" tooltips="1" connect="1" arrows="1" fold="1" page="1" pageScale="1" pageWidth="850" pageHeight="1100" math="0" shadow="0">
      <root>
        <mxCell id="0" />
        <mxCell id="1" parent="0" />
        <mxCell id="K2plUtH_WGhE_T3_-bDJ-1" value="User" style="rounded=0;whiteSpace=wrap;html=1;" parent="1" vertex="1">
          <mxGeometry x="60" y="-260" width="150" height="30" as="geometry" />
        </mxCell>
        <mxCell id="K2plUtH_WGhE_T3_-bDJ-8" value="" style="endArrow=none;dashed=1;html=1;rounded=0;entryX=0.5;entryY=1;entryDx=0;entryDy=0;startArrow=none;" parent="1" target="K2plUtH_WGhE_T3_-bDJ-1" edge="1">
          <mxGeometry width="50" height="50" relative="1" as="geometry">
            <mxPoint x="135" y="170" as="sourcePoint" />
            <mxPoint x="360" y="240" as="targetPoint" />
          </mxGeometry>
        </mxCell>
        <mxCell id="K2plUtH_WGhE_T3_-bDJ-14" value="" style="endArrow=none;dashed=1;html=1;rounded=0;entryX=0.5;entryY=1;entryDx=0;entryDy=0;startArrow=none;" parent="1" source="K2plUtH_WGhE_T3_-bDJ-79" edge="1">
          <mxGeometry width="50" height="50" relative="1" as="geometry">
            <mxPoint x="135" y="480" as="sourcePoint" />
            <mxPoint x="135" y="190" as="targetPoint" />
          </mxGeometry>
        </mxCell>
        <mxCell id="K2plUtH_WGhE_T3_-bDJ-15" value="" style="group" parent="1" vertex="1" connectable="0">
          <mxGeometry x="220" y="-120" width="960" height="30" as="geometry" />
        </mxCell>
        <mxCell id="K2plUtH_WGhE_T3_-bDJ-16" value="" style="endArrow=classic;html=1;rounded=0;entryX=0;entryY=0.25;entryDx=0;entryDy=0;" parent="K2plUtH_WGhE_T3_-bDJ-15" edge="1" target="K2plUtH_WGhE_T3_-bDJ-10">
          <mxGeometry width="50" height="50" relative="1" as="geometry">
            <mxPoint x="-90" y="23" as="sourcePoint" />
            <mxPoint x="1072.9411764705883" y="20" as="targetPoint" />
          </mxGeometry>
        </mxCell>
        <mxCell id="K2plUtH_WGhE_T3_-bDJ-56" value="the user opens up the software" style="shape=note;whiteSpace=wrap;html=1;backgroundOutline=1;darkOpacity=0.05;fontSize=13;size=10;" parent="1" vertex="1">
          <mxGeometry x="-130" y="-130" width="120" height="50" as="geometry" />
        </mxCell>
        <mxCell id="K2plUtH_WGhE_T3_-bDJ-79" value="" style="rounded=0;whiteSpace=wrap;html=1;" parent="1" vertex="1">
          <mxGeometry x="125" y="-140" width="20" height="380" as="geometry" />
        </mxCell>
        <mxCell id="K2plUtH_WGhE_T3_-bDJ-80" value="" style="endArrow=none;dashed=1;html=1;rounded=0;entryX=0.5;entryY=1;entryDx=0;entryDy=0;startArrow=none;exitX=0.5;exitY=0;exitDx=0;exitDy=0;" parent="1" source="K2plUtH_WGhE_T3_-bDJ-121" target="K2plUtH_WGhE_T3_-bDJ-79" edge="1">
          <mxGeometry width="50" height="50" relative="1" as="geometry">
            <mxPoint x="135" y="320" as="sourcePoint" />
            <mxPoint x="135" y="190" as="targetPoint" />
          </mxGeometry>
        </mxCell>
        <mxCell id="K2plUtH_WGhE_T3_-bDJ-116" value="" style="rounded=0;whiteSpace=wrap;html=1;fillColor=none;strokeColor=default;" parent="1" vertex="1">
          <mxGeometry y="-190" width="1970" height="470" as="geometry" />
        </mxCell>
        <mxCell id="K2plUtH_WGhE_T3_-bDJ-117" value="" style="endArrow=none;dashed=1;html=1;rounded=0;entryX=1;entryY=0.447;entryDx=0;entryDy=0;entryPerimeter=0;" parent="1" target="K2plUtH_WGhE_T3_-bDJ-116" edge="1">
          <mxGeometry width="50" height="50" relative="1" as="geometry">
            <mxPoint y="20" as="sourcePoint" />
            <mxPoint x="1440" y="26" as="targetPoint" />
          </mxGeometry>
        </mxCell>
        <mxCell id="K2plUtH_WGhE_T3_-bDJ-118" value="par" style="shape=card;whiteSpace=wrap;html=1;fillColor=none;direction=west;" parent="1" vertex="1">
          <mxGeometry y="-190" width="80" height="40" as="geometry" />
        </mxCell>
        <mxCell id="K2plUtH_WGhE_T3_-bDJ-119" value="[Fetching&lt;br&gt;Data&lt;br&gt;From&lt;br&gt;SMEAR]" style="text;html=1;strokeColor=none;fillColor=none;align=center;verticalAlign=middle;whiteSpace=wrap;rounded=0;" parent="1" vertex="1">
          <mxGeometry x="10" y="-130" width="60" height="30" as="geometry" />
        </mxCell>
        <mxCell id="K2plUtH_WGhE_T3_-bDJ-120" value="[Fetching&lt;br&gt;Data&lt;br&gt;From&lt;br&gt;STATFI]" style="text;html=1;strokeColor=none;fillColor=none;align=center;verticalAlign=middle;whiteSpace=wrap;rounded=0;" parent="1" vertex="1">
          <mxGeometry x="10" y="50" width="60" height="30" as="geometry" />
        </mxCell>
        <mxCell id="K2plUtH_WGhE_T3_-bDJ-122" value="&lt;span style=&quot;font-size: 13px&quot;&gt;[available]:&lt;/span&gt;" style="html=1;verticalAlign=bottom;endArrow=open;dashed=1;endSize=8;rounded=0;exitX=0;exitY=0.588;exitDx=0;exitDy=0;exitPerimeter=0;" parent="1" edge="1" source="K2plUtH_WGhE_T3_-bDJ-10">
          <mxGeometry x="-0.0769" relative="1" as="geometry">
            <mxPoint x="1040" y="-20" as="sourcePoint" />
            <mxPoint x="145" y="-50" as="targetPoint" />
            <Array as="points">
              <mxPoint x="230" y="-50" />
            </Array>
            <mxPoint as="offset" />
          </mxGeometry>
        </mxCell>
        <mxCell id="K2plUtH_WGhE_T3_-bDJ-125" value="&lt;span style=&quot;font-size: 13px&quot;&gt;[available]:&lt;/span&gt;" style="html=1;verticalAlign=bottom;endArrow=open;dashed=1;endSize=8;rounded=0;entryX=1;entryY=0.868;entryDx=0;entryDy=0;entryPerimeter=0;exitX=0;exitY=0.615;exitDx=0;exitDy=0;exitPerimeter=0;" parent="1" source="K2plUtH_WGhE_T3_-bDJ-89" edge="1" target="K2plUtH_WGhE_T3_-bDJ-79">
          <mxGeometry x="-0.0952" relative="1" as="geometry">
            <mxPoint x="280" y="190" as="sourcePoint" />
            <mxPoint x="150" y="190" as="targetPoint" />
            <Array as="points" />
            <mxPoint as="offset" />
          </mxGeometry>
        </mxCell>
        <mxCell id="K2plUtH_WGhE_T3_-bDJ-184" value="user selects options for getting SMEAR data" style="shape=note;whiteSpace=wrap;html=1;backgroundOutline=1;darkOpacity=0.05;fontSize=13;size=11;" parent="1" vertex="1">
          <mxGeometry x="-10" y="675" width="120" height="70" as="geometry" />
        </mxCell>
        <mxCell id="K2plUtH_WGhE_T3_-bDJ-185" value="" style="rounded=0;whiteSpace=wrap;html=1;strokeColor=default;fillColor=none;" parent="1" vertex="1">
          <mxGeometry x="125" y="715" width="20" height="30" as="geometry" />
        </mxCell>
        <mxCell id="K2plUtH_WGhE_T3_-bDJ-186" value="getData(tableName:string, varName:string, time:string)" style="text;html=1;align=center;verticalAlign=middle;resizable=0;points=[];autosize=1;strokeColor=none;fillColor=none;" parent="1" vertex="1">
          <mxGeometry x="610" y="710" width="310" height="20" as="geometry" />
        </mxCell>
        <mxCell id="K2plUtH_WGhE_T3_-bDJ-201" value="&lt;span style=&quot;font-size: 13px&quot;&gt;[available]:&lt;/span&gt;" style="html=1;verticalAlign=bottom;endArrow=open;dashed=1;endSize=8;rounded=0;entryX=1;entryY=0.5;entryDx=0;entryDy=0;" parent="1" edge="1" target="K2plUtH_WGhE_T3_-bDJ-207">
          <mxGeometry x="-0.0476" relative="1" as="geometry">
            <mxPoint x="1310" y="775" as="sourcePoint" />
            <mxPoint x="150" y="770" as="targetPoint" />
            <Array as="points" />
            <mxPoint as="offset" />
          </mxGeometry>
        </mxCell>
        <mxCell id="K2plUtH_WGhE_T3_-bDJ-206" value="" style="endArrow=classic;html=1;rounded=0;exitX=1;exitY=0.5;exitDx=0;exitDy=0;entryX=0;entryY=0.25;entryDx=0;entryDy=0;" parent="1" source="K2plUtH_WGhE_T3_-bDJ-185" edge="1" target="K2plUtH_WGhE_T3_-bDJ-198">
          <mxGeometry width="50" height="50" relative="1" as="geometry">
            <mxPoint x="440" y="730" as="sourcePoint" />
            <mxPoint x="1300" y="740" as="targetPoint" />
          </mxGeometry>
        </mxCell>
        <mxCell id="K2plUtH_WGhE_T3_-bDJ-207" value="" style="rounded=0;whiteSpace=wrap;html=1;strokeColor=default;fillColor=none;" parent="1" vertex="1">
          <mxGeometry x="125" y="760" width="20" height="30" as="geometry" />
        </mxCell>
        <mxCell id="K2plUtH_WGhE_T3_-bDJ-208" value="" style="endArrow=none;dashed=1;html=1;rounded=0;entryX=0.5;entryY=1;entryDx=0;entryDy=0;exitX=0.5;exitY=0;exitDx=0;exitDy=0;" parent="1" source="K2plUtH_WGhE_T3_-bDJ-207" target="K2plUtH_WGhE_T3_-bDJ-185" edge="1">
          <mxGeometry width="50" height="50" relative="1" as="geometry">
            <mxPoint x="420" y="820" as="sourcePoint" />
            <mxPoint x="470" y="770" as="targetPoint" />
          </mxGeometry>
        </mxCell>
        <mxCell id="K2plUtH_WGhE_T3_-bDJ-209" value="SMEAR data is returned to user" style="shape=note;whiteSpace=wrap;html=1;backgroundOutline=1;darkOpacity=0.05;fontSize=13;size=11;" parent="1" vertex="1">
          <mxGeometry x="-10" y="760" width="120" height="70" as="geometry" />
        </mxCell>
        <mxCell id="K2plUtH_WGhE_T3_-bDJ-57" value="user selects options for getting STATFI data" style="shape=note;whiteSpace=wrap;html=1;backgroundOutline=1;darkOpacity=0.05;fontSize=13;size=11;" parent="1" vertex="1">
          <mxGeometry x="-10" y="385" width="120" height="70" as="geometry" />
        </mxCell>
        <mxCell id="K2plUtH_WGhE_T3_-bDJ-121" value="" style="rounded=0;whiteSpace=wrap;html=1;strokeColor=default;fillColor=none;" parent="1" vertex="1">
          <mxGeometry x="125" y="425" width="20" height="30" as="geometry" />
        </mxCell>
        <mxCell id="K2plUtH_WGhE_T3_-bDJ-169" value="&lt;span style=&quot;font-size: 13px&quot;&gt;[available]:&lt;/span&gt;" style="html=1;verticalAlign=bottom;endArrow=open;dashed=1;endSize=8;rounded=0;" parent="1" edge="1">
          <mxGeometry x="-0.0476" relative="1" as="geometry">
            <mxPoint x="290" y="490" as="sourcePoint" />
            <mxPoint x="150" y="490" as="targetPoint" />
            <Array as="points">
              <mxPoint x="223" y="490.05" />
            </Array>
            <mxPoint as="offset" />
          </mxGeometry>
        </mxCell>
        <mxCell id="K2plUtH_WGhE_T3_-bDJ-178" value="" style="endArrow=classic;html=1;rounded=0;exitX=1;exitY=0.5;exitDx=0;exitDy=0;" parent="1" source="K2plUtH_WGhE_T3_-bDJ-121" edge="1">
          <mxGeometry width="50" height="50" relative="1" as="geometry">
            <mxPoint x="440" y="450" as="sourcePoint" />
            <mxPoint x="290" y="440" as="targetPoint" />
          </mxGeometry>
        </mxCell>
        <mxCell id="K2plUtH_WGhE_T3_-bDJ-179" value="" style="rounded=0;whiteSpace=wrap;html=1;strokeColor=default;fillColor=none;" parent="1" vertex="1">
          <mxGeometry x="125" y="480" width="20" height="30" as="geometry" />
        </mxCell>
        <mxCell id="K2plUtH_WGhE_T3_-bDJ-180" value="" style="endArrow=none;dashed=1;html=1;rounded=0;entryX=0.5;entryY=1;entryDx=0;entryDy=0;exitX=0.5;exitY=0;exitDx=0;exitDy=0;" parent="1" source="K2plUtH_WGhE_T3_-bDJ-179" target="K2plUtH_WGhE_T3_-bDJ-121" edge="1">
          <mxGeometry width="50" height="50" relative="1" as="geometry">
            <mxPoint x="420" y="540" as="sourcePoint" />
            <mxPoint x="470" y="490" as="targetPoint" />
          </mxGeometry>
        </mxCell>
        <mxCell id="K2plUtH_WGhE_T3_-bDJ-181" value="STATFI data is returned to user" style="shape=note;whiteSpace=wrap;html=1;backgroundOutline=1;darkOpacity=0.05;fontSize=13;size=11;" parent="1" vertex="1">
          <mxGeometry x="-10" y="480" width="120" height="70" as="geometry" />
        </mxCell>
        <mxCell id="lmyk1vAzdVTI69mNU8-5-11" value="" style="endArrow=none;dashed=1;html=1;rounded=0;exitX=0.5;exitY=0;exitDx=0;exitDy=0;" edge="1" parent="1" source="lmyk1vAzdVTI69mNU8-5-10">
          <mxGeometry width="50" height="50" relative="1" as="geometry">
            <mxPoint x="2070" y="370" as="sourcePoint" />
            <mxPoint x="1850" y="30" as="targetPoint" />
          </mxGeometry>
        </mxCell>
        <mxCell id="K2plUtH_WGhE_T3_-bDJ-193" value="" style="endArrow=none;dashed=1;html=1;rounded=0;exitX=0.5;exitY=1;exitDx=0;exitDy=0;entryX=0.5;entryY=1;entryDx=0;entryDy=0;" parent="1" source="K2plUtH_WGhE_T3_-bDJ-194" target="K2plUtH_WGhE_T3_-bDJ-12" edge="1">
          <mxGeometry width="50" height="50" relative="1" as="geometry">
            <mxPoint x="1550" y="1140" as="sourcePoint" />
            <mxPoint x="1540" y="180" as="targetPoint" />
          </mxGeometry>
        </mxCell>
        <mxCell id="lmyk1vAzdVTI69mNU8-5-14" value="" style="endArrow=none;dashed=1;html=1;rounded=0;entryX=0.5;entryY=1;entryDx=0;entryDy=0;exitX=0.5;exitY=0;exitDx=0;exitDy=0;" edge="1" parent="1" source="K2plUtH_WGhE_T3_-bDJ-185" target="K2plUtH_WGhE_T3_-bDJ-179">
          <mxGeometry width="50" height="50" relative="1" as="geometry">
            <mxPoint x="360" y="670" as="sourcePoint" />
            <mxPoint x="410" y="620" as="targetPoint" />
          </mxGeometry>
        </mxCell>
        <mxCell id="K2plUtH_WGhE_T3_-bDJ-197" value="" style="endArrow=none;dashed=1;html=1;rounded=0;startArrow=none;entryX=0.5;entryY=1;entryDx=0;entryDy=0;" parent="1" source="K2plUtH_WGhE_T3_-bDJ-198" target="K2plUtH_WGhE_T3_-bDJ-10" edge="1">
          <mxGeometry width="50" height="50" relative="1" as="geometry">
            <mxPoint x="1315" y="1320" as="sourcePoint" />
            <mxPoint x="1320" y="30" as="targetPoint" />
          </mxGeometry>
        </mxCell>
        <mxCell id="K2plUtH_WGhE_T3_-bDJ-189" value="" style="endArrow=none;dashed=1;html=1;rounded=0;exitX=0.5;exitY=1;exitDx=0;exitDy=0;entryX=0.5;entryY=1;entryDx=0;entryDy=0;" parent="1" source="K2plUtH_WGhE_T3_-bDJ-190" target="K2plUtH_WGhE_T3_-bDJ-21" edge="1">
          <mxGeometry width="50" height="50" relative="1" as="geometry">
            <mxPoint x="1800" y="1210" as="sourcePoint" />
            <mxPoint x="1800" y="140" as="targetPoint" />
          </mxGeometry>
        </mxCell>
        <mxCell id="K2plUtH_WGhE_T3_-bDJ-103" value="" style="endArrow=classic;html=1;rounded=0;entryX=0;entryY=0.2;entryDx=0;entryDy=0;entryPerimeter=0;exitX=0.95;exitY=0.726;exitDx=0;exitDy=0;exitPerimeter=0;" parent="1" edge="1" target="K2plUtH_WGhE_T3_-bDJ-89" source="K2plUtH_WGhE_T3_-bDJ-79">
          <mxGeometry width="50" height="50" relative="1" as="geometry">
            <mxPoint x="150" y="137" as="sourcePoint" />
            <mxPoint x="290" y="140" as="targetPoint" />
          </mxGeometry>
        </mxCell>
        <mxCell id="K2plUtH_WGhE_T3_-bDJ-115" value="&lt;span style=&quot;font-size: 13px&quot;&gt;[available]:&lt;/span&gt;" style="html=1;verticalAlign=bottom;endArrow=open;dashed=1;endSize=8;rounded=0;entryX=1;entryY=0.615;entryDx=0;entryDy=0;entryPerimeter=0;" parent="1" edge="1" target="K2plUtH_WGhE_T3_-bDJ-93">
          <mxGeometry relative="1" as="geometry">
            <mxPoint x="930" y="190" as="sourcePoint" />
            <mxPoint x="850" y="190.00000000000003" as="targetPoint" />
            <Array as="points">
              <mxPoint x="880" y="190" />
            </Array>
          </mxGeometry>
        </mxCell>
        <mxCell id="K2plUtH_WGhE_T3_-bDJ-145" value="&lt;span style=&quot;font-size: 13px&quot;&gt;[available]:&lt;/span&gt;" style="html=1;verticalAlign=bottom;endArrow=open;dashed=1;endSize=8;rounded=0;entryX=1.1;entryY=0.615;entryDx=0;entryDy=0;entryPerimeter=0;" parent="1" target="K2plUtH_WGhE_T3_-bDJ-134" edge="1">
          <mxGeometry x="-0.0476" relative="1" as="geometry">
            <mxPoint x="500" y="490" as="sourcePoint" />
            <mxPoint x="360" y="490" as="targetPoint" />
            <Array as="points">
              <mxPoint x="460" y="490" />
            </Array>
            <mxPoint as="offset" />
          </mxGeometry>
        </mxCell>
        <mxCell id="K2plUtH_WGhE_T3_-bDJ-167" value="&lt;span style=&quot;font-size: 13px&quot;&gt;[available]:&lt;/span&gt;" style="html=1;verticalAlign=bottom;endArrow=open;dashed=1;endSize=8;rounded=0;entryX=1.1;entryY=0.615;entryDx=0;entryDy=0;entryPerimeter=0;" parent="1" edge="1">
          <mxGeometry relative="1" as="geometry">
            <mxPoint x="680" y="490" as="sourcePoint" />
            <mxPoint x="520" y="489.99999999999983" as="targetPoint" />
            <Array as="points">
              <mxPoint x="583" y="490.05" />
            </Array>
            <mxPoint as="offset" />
          </mxGeometry>
        </mxCell>
        <mxCell id="K2plUtH_WGhE_T3_-bDJ-111" value="" style="endArrow=classic;html=1;rounded=0;fontSize=13;exitX=1;exitY=0.25;exitDx=0;exitDy=0;" parent="1" edge="1" source="K2plUtH_WGhE_T3_-bDJ-93">
          <mxGeometry width="50" height="50" relative="1" as="geometry">
            <mxPoint x="900" y="135" as="sourcePoint" />
            <mxPoint x="880" y="143" as="targetPoint" />
          </mxGeometry>
        </mxCell>
        <mxCell id="K2plUtH_WGhE_T3_-bDJ-99" value="" style="endArrow=classic;html=1;rounded=0;" parent="1" edge="1">
          <mxGeometry width="50" height="50" relative="1" as="geometry">
            <mxPoint x="520" y="140" as="sourcePoint" />
            <mxPoint x="680" y="140" as="targetPoint" />
            <Array as="points" />
          </mxGeometry>
        </mxCell>
        <mxCell id="K2plUtH_WGhE_T3_-bDJ-100" value="&lt;span style=&quot;font-size: 13px&quot;&gt;[available]:&lt;/span&gt;" style="html=1;verticalAlign=bottom;endArrow=open;dashed=1;endSize=8;rounded=0;entryX=1;entryY=0.612;entryDx=0;entryDy=0;entryPerimeter=0;" parent="1" edge="1" target="K2plUtH_WGhE_T3_-bDJ-91">
          <mxGeometry relative="1" as="geometry">
            <mxPoint x="680" y="190" as="sourcePoint" />
            <mxPoint x="650" y="190" as="targetPoint" />
            <Array as="points" />
            <mxPoint as="offset" />
          </mxGeometry>
        </mxCell>
        <mxCell id="K2plUtH_WGhE_T3_-bDJ-95" value="" style="endArrow=classic;html=1;rounded=0;exitX=0.95;exitY=0.208;exitDx=0;exitDy=0;exitPerimeter=0;" parent="1" edge="1" source="K2plUtH_WGhE_T3_-bDJ-89">
          <mxGeometry width="50" height="50" relative="1" as="geometry">
            <mxPoint x="400" y="140" as="sourcePoint" />
            <mxPoint x="500" y="137" as="targetPoint" />
            <Array as="points" />
          </mxGeometry>
        </mxCell>
        <mxCell id="K2plUtH_WGhE_T3_-bDJ-96" value="getDataFromSTATFI()" style="text;html=1;align=center;verticalAlign=middle;resizable=0;points=[];autosize=1;strokeColor=none;fillColor=none;" parent="1" vertex="1">
          <mxGeometry x="350" y="120" width="130" height="20" as="geometry" />
        </mxCell>
        <mxCell id="K2plUtH_WGhE_T3_-bDJ-150" value="getData(co2Unit:string,&lt;br&gt;time:string)" style="text;html=1;align=center;verticalAlign=middle;resizable=0;points=[];autosize=1;strokeColor=none;fillColor=none;" parent="1" vertex="1">
          <mxGeometry x="145" y="410" width="140" height="30" as="geometry" />
        </mxCell>
        <mxCell id="K2plUtH_WGhE_T3_-bDJ-85" value="statfiDataUI:StatfiDataUI" style="rounded=0;whiteSpace=wrap;html=1;" parent="1" vertex="1">
          <mxGeometry x="210" y="50" width="190" height="30" as="geometry" />
        </mxCell>
        <mxCell id="K2plUtH_WGhE_T3_-bDJ-88" value="" style="endArrow=none;dashed=1;html=1;rounded=0;entryX=0.5;entryY=1;entryDx=0;entryDy=0;startArrow=none;" parent="1" source="K2plUtH_WGhE_T3_-bDJ-89" target="K2plUtH_WGhE_T3_-bDJ-85" edge="1">
          <mxGeometry width="50" height="50" relative="1" as="geometry">
            <mxPoint x="305" y="730" as="sourcePoint" />
            <mxPoint x="310" y="490" as="targetPoint" />
          </mxGeometry>
        </mxCell>
        <mxCell id="K2plUtH_WGhE_T3_-bDJ-89" value="" style="rounded=0;whiteSpace=wrap;html=1;" parent="1" vertex="1">
          <mxGeometry x="295" y="110" width="20" height="130" as="geometry" />
        </mxCell>
        <mxCell id="K2plUtH_WGhE_T3_-bDJ-133" value="" style="endArrow=none;dashed=1;html=1;rounded=0;startArrow=none;" parent="1" source="K2plUtH_WGhE_T3_-bDJ-134" edge="1">
          <mxGeometry width="50" height="50" relative="1" as="geometry">
            <mxPoint x="305" y="1030" as="sourcePoint" />
            <mxPoint x="305" y="240" as="targetPoint" />
          </mxGeometry>
        </mxCell>
        <mxCell id="K2plUtH_WGhE_T3_-bDJ-134" value="" style="rounded=0;whiteSpace=wrap;html=1;" parent="1" vertex="1">
          <mxGeometry x="295" y="410" width="20" height="130" as="geometry" />
        </mxCell>
        <mxCell id="K2plUtH_WGhE_T3_-bDJ-97" value="&lt;span style=&quot;font-size: 13px&quot;&gt;[available]:&lt;/span&gt;" style="html=1;verticalAlign=bottom;endArrow=open;dashed=1;endSize=8;rounded=0;" parent="1" edge="1">
          <mxGeometry x="-0.0476" relative="1" as="geometry">
            <mxPoint x="500" y="190" as="sourcePoint" />
            <mxPoint x="315" y="190" as="targetPoint" />
            <Array as="points">
              <mxPoint x="415" y="190" />
            </Array>
            <mxPoint as="offset" />
          </mxGeometry>
        </mxCell>
        <mxCell id="K2plUtH_WGhE_T3_-bDJ-143" value="" style="endArrow=classic;html=1;rounded=0;" parent="1" edge="1">
          <mxGeometry width="50" height="50" relative="1" as="geometry">
            <mxPoint x="315" y="439" as="sourcePoint" />
            <mxPoint x="500" y="439" as="targetPoint" />
            <Array as="points" />
          </mxGeometry>
        </mxCell>
        <mxCell id="K2plUtH_WGhE_T3_-bDJ-171" value="getData(co2Unit:string,&lt;br&gt;time:string)" style="text;html=1;align=center;verticalAlign=middle;resizable=0;points=[];autosize=1;strokeColor=none;fillColor=none;" parent="1" vertex="1">
          <mxGeometry x="340" y="410" width="140" height="30" as="geometry" />
        </mxCell>
        <mxCell id="K2plUtH_WGhE_T3_-bDJ-135" value="" style="endArrow=none;dashed=1;html=1;rounded=0;exitX=0.5;exitY=1;exitDx=0;exitDy=0;" parent="1" source="K2plUtH_WGhE_T3_-bDJ-136" edge="1">
          <mxGeometry width="50" height="50" relative="1" as="geometry">
            <mxPoint x="510" y="850" as="sourcePoint" />
            <mxPoint x="510" y="240" as="targetPoint" />
          </mxGeometry>
        </mxCell>
        <mxCell id="K2plUtH_WGhE_T3_-bDJ-136" value="" style="rounded=0;whiteSpace=wrap;html=1;" parent="1" vertex="1">
          <mxGeometry x="500" y="410" width="20" height="130" as="geometry" />
        </mxCell>
        <mxCell id="K2plUtH_WGhE_T3_-bDJ-172" value="getData(co2Unit:string,&lt;br&gt;time:string)" style="text;html=1;align=center;verticalAlign=middle;resizable=0;points=[];autosize=1;strokeColor=none;fillColor=none;" parent="1" vertex="1">
          <mxGeometry x="530" y="410" width="140" height="30" as="geometry" />
        </mxCell>
        <mxCell id="K2plUtH_WGhE_T3_-bDJ-157" value="" style="endArrow=classic;html=1;rounded=0;" parent="1" edge="1">
          <mxGeometry width="50" height="50" relative="1" as="geometry">
            <mxPoint x="520" y="440" as="sourcePoint" />
            <mxPoint x="680" y="440" as="targetPoint" />
            <Array as="points" />
          </mxGeometry>
        </mxCell>
        <mxCell id="K2plUtH_WGhE_T3_-bDJ-112" value="getDataFromSTATFI()" style="text;html=1;align=center;verticalAlign=middle;resizable=0;points=[];autosize=1;strokeColor=none;fillColor=none;" parent="1" vertex="1">
          <mxGeometry x="730" y="120" width="130" height="20" as="geometry" />
        </mxCell>
        <mxCell id="K2plUtH_WGhE_T3_-bDJ-138" value="" style="rounded=0;whiteSpace=wrap;html=1;" parent="1" vertex="1">
          <mxGeometry x="680" y="410" width="20" height="130" as="geometry" />
        </mxCell>
        <mxCell id="K2plUtH_WGhE_T3_-bDJ-87" value="statfiDataModal:StatfiDataModal" style="rounded=0;whiteSpace=wrap;html=1;" parent="1" vertex="1">
          <mxGeometry x="600" y="50" width="180" height="30" as="geometry" />
        </mxCell>
        <mxCell id="K2plUtH_WGhE_T3_-bDJ-92" value="" style="endArrow=none;dashed=1;html=1;rounded=0;entryX=0.5;entryY=1;entryDx=0;entryDy=0;exitX=0.5;exitY=1;exitDx=0;exitDy=0;" parent="1" source="K2plUtH_WGhE_T3_-bDJ-93" target="K2plUtH_WGhE_T3_-bDJ-87" edge="1">
          <mxGeometry width="50" height="50" relative="1" as="geometry">
            <mxPoint x="690" y="620" as="sourcePoint" />
            <mxPoint x="650" y="490" as="targetPoint" />
          </mxGeometry>
        </mxCell>
        <mxCell id="K2plUtH_WGhE_T3_-bDJ-93" value="" style="rounded=0;whiteSpace=wrap;html=1;" parent="1" vertex="1">
          <mxGeometry x="680" y="110" width="20" height="130" as="geometry" />
        </mxCell>
        <mxCell id="K2plUtH_WGhE_T3_-bDJ-137" value="" style="endArrow=none;dashed=1;html=1;rounded=0;entryX=0.5;entryY=1;entryDx=0;entryDy=0;" parent="1" target="K2plUtH_WGhE_T3_-bDJ-93" edge="1">
          <mxGeometry width="50" height="50" relative="1" as="geometry">
            <mxPoint x="690" y="410" as="sourcePoint" />
            <mxPoint x="690" y="380" as="targetPoint" />
          </mxGeometry>
        </mxCell>
        <mxCell id="K2plUtH_WGhE_T3_-bDJ-86" value="statfiDataCtrl:StatfiDataCtrl" style="rounded=0;whiteSpace=wrap;html=1;" parent="1" vertex="1">
          <mxGeometry x="430" y="50" width="160" height="30" as="geometry" />
        </mxCell>
        <mxCell id="K2plUtH_WGhE_T3_-bDJ-90" value="" style="endArrow=none;dashed=1;html=1;rounded=0;entryX=0.5;entryY=1;entryDx=0;entryDy=0;exitX=0.5;exitY=1;exitDx=0;exitDy=0;" parent="1" source="K2plUtH_WGhE_T3_-bDJ-91" target="K2plUtH_WGhE_T3_-bDJ-86" edge="1">
          <mxGeometry width="50" height="50" relative="1" as="geometry">
            <mxPoint x="510" y="550" as="sourcePoint" />
            <mxPoint x="280" y="490" as="targetPoint" />
          </mxGeometry>
        </mxCell>
        <mxCell id="K2plUtH_WGhE_T3_-bDJ-91" value="" style="rounded=0;whiteSpace=wrap;html=1;" parent="1" vertex="1">
          <mxGeometry x="500" y="110" width="20" height="130" as="geometry" />
        </mxCell>
        <mxCell id="K2plUtH_WGhE_T3_-bDJ-101" value="getDataFromSTATFI()" style="text;html=1;align=center;verticalAlign=middle;resizable=0;points=[];autosize=1;strokeColor=none;fillColor=none;" parent="1" vertex="1">
          <mxGeometry x="540" y="120" width="130" height="20" as="geometry" />
        </mxCell>
        <mxCell id="lmyk1vAzdVTI69mNU8-5-20" value="" style="group" vertex="1" connectable="0" parent="1">
          <mxGeometry x="700" y="130" width="300" height="410" as="geometry" />
        </mxCell>
        <mxCell id="K2plUtH_WGhE_T3_-bDJ-173" value="getData(co2Unit:string,&lt;br&gt;time:string)" style="text;html=1;align=center;verticalAlign=middle;resizable=0;points=[];autosize=1;strokeColor=none;fillColor=none;" parent="lmyk1vAzdVTI69mNU8-5-20" vertex="1">
          <mxGeometry x="50" y="275" width="140" height="30" as="geometry" />
        </mxCell>
        <mxCell id="K2plUtH_WGhE_T3_-bDJ-163" value="" style="endArrow=classic;html=1;rounded=0;" parent="lmyk1vAzdVTI69mNU8-5-20" edge="1">
          <mxGeometry width="50" height="50" relative="1" as="geometry">
            <mxPoint y="309" as="sourcePoint" />
            <mxPoint x="230" y="309" as="targetPoint" />
            <Array as="points" />
          </mxGeometry>
        </mxCell>
        <mxCell id="K2plUtH_WGhE_T3_-bDJ-168" value="&lt;span style=&quot;font-size: 13px&quot;&gt;[available]:&lt;/span&gt;" style="html=1;verticalAlign=bottom;endArrow=open;dashed=1;endSize=8;rounded=0;entryX=1.1;entryY=0.615;entryDx=0;entryDy=0;entryPerimeter=0;" parent="lmyk1vAzdVTI69mNU8-5-20" edge="1">
          <mxGeometry x="-0.0241" relative="1" as="geometry">
            <mxPoint x="230" y="360" as="sourcePoint" />
            <mxPoint y="360" as="targetPoint" />
            <Array as="points">
              <mxPoint x="63" y="360.05" />
            </Array>
            <mxPoint as="offset" />
          </mxGeometry>
        </mxCell>
        <mxCell id="K2plUtH_WGhE_T3_-bDJ-107" value="&lt;span style=&quot;font-size: 12px&quot;&gt;STATFI&lt;/span&gt;" style="rounded=0;whiteSpace=wrap;html=1;fontSize=13;" parent="lmyk1vAzdVTI69mNU8-5-20" vertex="1">
          <mxGeometry x="180" width="120" height="30" as="geometry" />
        </mxCell>
        <mxCell id="K2plUtH_WGhE_T3_-bDJ-109" value="" style="rounded=0;whiteSpace=wrap;html=1;fontSize=14;" parent="lmyk1vAzdVTI69mNU8-5-20" vertex="1">
          <mxGeometry x="230" y="50" width="20" height="360" as="geometry" />
        </mxCell>
        <mxCell id="K2plUtH_WGhE_T3_-bDJ-110" value="" style="endArrow=none;dashed=1;html=1;rounded=0;fontSize=14;startArrow=none;" parent="lmyk1vAzdVTI69mNU8-5-20" edge="1">
          <mxGeometry width="50" height="50" relative="1" as="geometry">
            <mxPoint x="239.5" y="50" as="sourcePoint" />
            <mxPoint x="240" y="30" as="targetPoint" />
          </mxGeometry>
        </mxCell>
        <mxCell id="lmyk1vAzdVTI69mNU8-5-21" value="" style="group" vertex="1" connectable="0" parent="1">
          <mxGeometry x="960" y="-250" width="950" height="280" as="geometry" />
        </mxCell>
        <mxCell id="K2plUtH_WGhE_T3_-bDJ-27" value="" style="endArrow=classic;html=1;rounded=0;fontSize=13;entryX=0;entryY=0.5;entryDx=0;entryDy=0;" parent="lmyk1vAzdVTI69mNU8-5-21" target="K2plUtH_WGhE_T3_-bDJ-26" edge="1">
          <mxGeometry width="50" height="50" relative="1" as="geometry">
            <mxPoint x="590" y="145" as="sourcePoint" />
            <mxPoint x="780" y="145" as="targetPoint" />
          </mxGeometry>
        </mxCell>
        <mxCell id="K2plUtH_WGhE_T3_-bDJ-32" value="&lt;span style=&quot;font-size: 13px&quot;&gt;[available]:&lt;/span&gt;" style="html=1;verticalAlign=bottom;endArrow=open;dashed=1;endSize=8;rounded=0;exitX=-0.05;exitY=0.094;exitDx=0;exitDy=0;exitPerimeter=0;" parent="lmyk1vAzdVTI69mNU8-5-21" source="K2plUtH_WGhE_T3_-bDJ-30" edge="1">
          <mxGeometry relative="1" as="geometry">
            <mxPoint x="-190" y="510" as="sourcePoint" />
            <mxPoint x="590" y="198" as="targetPoint" />
            <Array as="points" />
          </mxGeometry>
        </mxCell>
        <mxCell id="K2plUtH_WGhE_T3_-bDJ-78" value="getDataFromSMEAR()" style="text;html=1;align=center;verticalAlign=middle;resizable=0;points=[];autosize=1;strokeColor=none;fillColor=none;" parent="lmyk1vAzdVTI69mNU8-5-21" vertex="1">
          <mxGeometry x="640" y="125" width="140" height="20" as="geometry" />
        </mxCell>
        <mxCell id="lmyk1vAzdVTI69mNU8-5-1" value="" style="group" vertex="1" connectable="0" parent="lmyk1vAzdVTI69mNU8-5-21">
          <mxGeometry width="680" height="250" as="geometry" />
        </mxCell>
        <mxCell id="K2plUtH_WGhE_T3_-bDJ-2" value="smearDataUI" style="rounded=0;whiteSpace=wrap;html=1;" parent="lmyk1vAzdVTI69mNU8-5-1" vertex="1">
          <mxGeometry width="190" height="30" as="geometry" />
        </mxCell>
        <mxCell id="K2plUtH_WGhE_T3_-bDJ-3" value="smearDataCtrl" style="rounded=0;whiteSpace=wrap;html=1;" parent="lmyk1vAzdVTI69mNU8-5-1" vertex="1">
          <mxGeometry x="240" width="180" height="30" as="geometry" />
        </mxCell>
        <mxCell id="K2plUtH_WGhE_T3_-bDJ-4" value="smearDataModal" style="rounded=0;whiteSpace=wrap;html=1;" parent="lmyk1vAzdVTI69mNU8-5-1" vertex="1">
          <mxGeometry x="480" width="200" height="30" as="geometry" />
        </mxCell>
        <mxCell id="K2plUtH_WGhE_T3_-bDJ-9" value="" style="endArrow=none;dashed=1;html=1;rounded=0;entryX=0.5;entryY=1;entryDx=0;entryDy=0;startArrow=none;" parent="lmyk1vAzdVTI69mNU8-5-1" source="K2plUtH_WGhE_T3_-bDJ-10" target="K2plUtH_WGhE_T3_-bDJ-2" edge="1">
          <mxGeometry width="50" height="50" relative="1" as="geometry">
            <mxPoint x="95" y="740" as="sourcePoint" />
            <mxPoint x="100" y="500" as="targetPoint" />
          </mxGeometry>
        </mxCell>
        <mxCell id="K2plUtH_WGhE_T3_-bDJ-10" value="" style="rounded=0;whiteSpace=wrap;html=1;" parent="lmyk1vAzdVTI69mNU8-5-1" vertex="1">
          <mxGeometry x="85" y="120" width="20" height="130" as="geometry" />
        </mxCell>
        <mxCell id="K2plUtH_WGhE_T3_-bDJ-11" value="" style="endArrow=none;dashed=1;html=1;rounded=0;entryX=0.5;entryY=1;entryDx=0;entryDy=0;exitX=0.5;exitY=1;exitDx=0;exitDy=0;" parent="lmyk1vAzdVTI69mNU8-5-1" source="K2plUtH_WGhE_T3_-bDJ-12" target="K2plUtH_WGhE_T3_-bDJ-3" edge="1">
          <mxGeometry width="50" height="50" relative="1" as="geometry">
            <mxPoint x="330" y="560" as="sourcePoint" />
            <mxPoint x="100" y="500" as="targetPoint" />
          </mxGeometry>
        </mxCell>
        <mxCell id="K2plUtH_WGhE_T3_-bDJ-12" value="" style="rounded=0;whiteSpace=wrap;html=1;" parent="lmyk1vAzdVTI69mNU8-5-1" vertex="1">
          <mxGeometry x="320" y="120" width="20" height="130" as="geometry" />
        </mxCell>
        <mxCell id="K2plUtH_WGhE_T3_-bDJ-20" value="" style="endArrow=none;dashed=1;html=1;rounded=0;entryX=0.5;entryY=1;entryDx=0;entryDy=0;exitX=0.5;exitY=1;exitDx=0;exitDy=0;" parent="lmyk1vAzdVTI69mNU8-5-1" source="K2plUtH_WGhE_T3_-bDJ-21" target="K2plUtH_WGhE_T3_-bDJ-4" edge="1">
          <mxGeometry width="50" height="50" relative="1" as="geometry">
            <mxPoint x="580" y="630" as="sourcePoint" />
            <mxPoint x="540" y="500" as="targetPoint" />
          </mxGeometry>
        </mxCell>
        <mxCell id="K2plUtH_WGhE_T3_-bDJ-21" value="" style="rounded=0;whiteSpace=wrap;html=1;" parent="lmyk1vAzdVTI69mNU8-5-1" vertex="1">
          <mxGeometry x="570" y="120" width="20" height="130" as="geometry" />
        </mxCell>
        <mxCell id="K2plUtH_WGhE_T3_-bDJ-82" value="" style="group" parent="lmyk1vAzdVTI69mNU8-5-1" vertex="1" connectable="0">
          <mxGeometry x="340" y="130" width="230" height="70" as="geometry" />
        </mxCell>
        <mxCell id="K2plUtH_WGhE_T3_-bDJ-22" value="" style="endArrow=classic;html=1;rounded=0;" parent="K2plUtH_WGhE_T3_-bDJ-82" edge="1">
          <mxGeometry width="50" height="50" relative="1" as="geometry">
            <mxPoint y="20" as="sourcePoint" />
            <mxPoint x="230" y="20" as="targetPoint" />
            <Array as="points" />
          </mxGeometry>
        </mxCell>
        <mxCell id="K2plUtH_WGhE_T3_-bDJ-24" value="&lt;span style=&quot;font-size: 13px&quot;&gt;[available]:&lt;/span&gt;" style="html=1;verticalAlign=bottom;endArrow=open;dashed=1;endSize=8;rounded=0;" parent="K2plUtH_WGhE_T3_-bDJ-82" edge="1">
          <mxGeometry x="-0.0435" relative="1" as="geometry">
            <mxPoint x="230" y="70" as="sourcePoint" />
            <mxPoint y="70" as="targetPoint" />
            <Array as="points">
              <mxPoint x="130" y="70" />
            </Array>
            <mxPoint as="offset" />
          </mxGeometry>
        </mxCell>
        <mxCell id="K2plUtH_WGhE_T3_-bDJ-77" value="getDataFromSMEAR()" style="text;html=1;align=center;verticalAlign=middle;resizable=0;points=[];autosize=1;strokeColor=none;fillColor=none;" parent="K2plUtH_WGhE_T3_-bDJ-82" vertex="1">
          <mxGeometry x="40" width="140" height="20" as="geometry" />
        </mxCell>
        <mxCell id="K2plUtH_WGhE_T3_-bDJ-18" value="" style="endArrow=classic;html=1;rounded=0;" parent="lmyk1vAzdVTI69mNU8-5-1" edge="1">
          <mxGeometry width="50" height="50" relative="1" as="geometry">
            <mxPoint x="110" y="150" as="sourcePoint" />
            <mxPoint x="320" y="150" as="targetPoint" />
            <Array as="points" />
          </mxGeometry>
        </mxCell>
        <mxCell id="K2plUtH_WGhE_T3_-bDJ-19" value="getDataFromSMEAR()" style="text;html=1;align=center;verticalAlign=middle;resizable=0;points=[];autosize=1;strokeColor=none;fillColor=none;" parent="lmyk1vAzdVTI69mNU8-5-1" vertex="1">
          <mxGeometry x="140" y="130" width="140" height="20" as="geometry" />
        </mxCell>
        <mxCell id="K2plUtH_WGhE_T3_-bDJ-25" value="&lt;span style=&quot;font-size: 13px&quot;&gt;[available]:&lt;/span&gt;" style="html=1;verticalAlign=bottom;endArrow=open;dashed=1;endSize=8;rounded=0;" parent="lmyk1vAzdVTI69mNU8-5-1" edge="1">
          <mxGeometry relative="1" as="geometry">
            <mxPoint x="320" y="200" as="sourcePoint" />
            <mxPoint x="110" y="200" as="targetPoint" />
            <Array as="points">
              <mxPoint x="210" y="200" />
            </Array>
          </mxGeometry>
        </mxCell>
        <mxCell id="K2plUtH_WGhE_T3_-bDJ-30" value="" style="rounded=0;whiteSpace=wrap;html=1;fontSize=14;" parent="lmyk1vAzdVTI69mNU8-5-21" vertex="1">
          <mxGeometry x="880" y="190" width="20" height="90" as="geometry" />
        </mxCell>
        <mxCell id="K2plUtH_WGhE_T3_-bDJ-31" value="" style="endArrow=none;dashed=1;html=1;rounded=0;fontSize=14;entryX=0.5;entryY=1;entryDx=0;entryDy=0;exitX=0.5;exitY=1;exitDx=0;exitDy=0;" parent="lmyk1vAzdVTI69mNU8-5-21" source="K2plUtH_WGhE_T3_-bDJ-30" target="K2plUtH_WGhE_T3_-bDJ-30" edge="1">
          <mxGeometry width="50" height="50" relative="1" as="geometry">
            <mxPoint x="220" y="770" as="sourcePoint" />
            <mxPoint x="220" y="480" as="targetPoint" />
          </mxGeometry>
        </mxCell>
        <mxCell id="K2plUtH_WGhE_T3_-bDJ-29" value="" style="endArrow=none;dashed=1;html=1;rounded=0;fontSize=14;entryX=0.5;entryY=1;entryDx=0;entryDy=0;startArrow=none;" parent="lmyk1vAzdVTI69mNU8-5-21" source="K2plUtH_WGhE_T3_-bDJ-30" target="K2plUtH_WGhE_T3_-bDJ-26" edge="1">
          <mxGeometry width="50" height="50" relative="1" as="geometry">
            <mxPoint x="2260" y="640" as="sourcePoint" />
            <mxPoint x="2060" y="370" as="targetPoint" />
          </mxGeometry>
        </mxCell>
        <mxCell id="K2plUtH_WGhE_T3_-bDJ-26" value="&lt;span style=&quot;font-size: 12px&quot;&gt;Smear&lt;/span&gt;" style="rounded=0;whiteSpace=wrap;html=1;fontSize=13;" parent="lmyk1vAzdVTI69mNU8-5-21" vertex="1">
          <mxGeometry x="830" y="130" width="120" height="30" as="geometry" />
        </mxCell>
        <mxCell id="lmyk1vAzdVTI69mNU8-5-22" value="" style="group" vertex="1" connectable="0" parent="1">
          <mxGeometry x="1045" y="690" width="815" height="135" as="geometry" />
        </mxCell>
        <mxCell id="K2plUtH_WGhE_T3_-bDJ-210" value="getData(tableName:string,&lt;br&gt;varName:string,&lt;br&gt;time:string)" style="text;html=1;align=center;verticalAlign=middle;resizable=0;points=[];autosize=1;strokeColor=none;fillColor=none;" parent="lmyk1vAzdVTI69mNU8-5-22" vertex="1">
          <mxGeometry x="575" width="160" height="50" as="geometry" />
        </mxCell>
        <mxCell id="lmyk1vAzdVTI69mNU8-5-10" value="" style="rounded=0;whiteSpace=wrap;html=1;" vertex="1" parent="lmyk1vAzdVTI69mNU8-5-22">
          <mxGeometry x="795" y="5" width="20" height="130" as="geometry" />
        </mxCell>
        <mxCell id="K2plUtH_WGhE_T3_-bDJ-200" value="&lt;span style=&quot;font-size: 13px&quot;&gt;[available]:&lt;/span&gt;" style="html=1;verticalAlign=bottom;endArrow=open;dashed=1;endSize=8;rounded=0;entryX=1.1;entryY=0.615;entryDx=0;entryDy=0;entryPerimeter=0;" parent="lmyk1vAzdVTI69mNU8-5-22" edge="1">
          <mxGeometry relative="1" as="geometry">
            <mxPoint x="485" y="85" as="sourcePoint" />
            <mxPoint x="259" y="84.99999999999977" as="targetPoint" />
            <Array as="points">
              <mxPoint x="322" y="85.04999999999995" />
            </Array>
            <mxPoint as="offset" />
          </mxGeometry>
        </mxCell>
        <mxCell id="K2plUtH_WGhE_T3_-bDJ-205" value="getData(tableName:string,&lt;br&gt;varName:string,&lt;br&gt;time:string)" style="text;html=1;align=center;verticalAlign=middle;resizable=0;points=[];autosize=1;strokeColor=none;fillColor=none;" parent="lmyk1vAzdVTI69mNU8-5-22" vertex="1">
          <mxGeometry x="285" width="160" height="50" as="geometry" />
        </mxCell>
        <mxCell id="K2plUtH_WGhE_T3_-bDJ-194" value="" style="rounded=0;whiteSpace=wrap;html=1;" parent="lmyk1vAzdVTI69mNU8-5-22" vertex="1">
          <mxGeometry x="235" y="5" width="20" height="130" as="geometry" />
        </mxCell>
        <mxCell id="K2plUtH_WGhE_T3_-bDJ-202" value="" style="endArrow=classic;html=1;rounded=0;entryX=-0.05;entryY=0.315;entryDx=0;entryDy=0;entryPerimeter=0;exitX=1;exitY=0.308;exitDx=0;exitDy=0;exitPerimeter=0;" parent="lmyk1vAzdVTI69mNU8-5-22" edge="1" target="K2plUtH_WGhE_T3_-bDJ-194" source="K2plUtH_WGhE_T3_-bDJ-198">
          <mxGeometry width="50" height="50" relative="1" as="geometry">
            <mxPoint x="-65" y="34" as="sourcePoint" />
            <mxPoint x="265" y="34" as="targetPoint" />
            <Array as="points" />
          </mxGeometry>
        </mxCell>
        <mxCell id="K2plUtH_WGhE_T3_-bDJ-203" value="getData(tableName:string,&lt;br&gt;varName:string,&lt;br&gt;time:string)" style="text;html=1;align=center;verticalAlign=middle;resizable=0;points=[];autosize=1;strokeColor=none;fillColor=none;" parent="lmyk1vAzdVTI69mNU8-5-22" vertex="1">
          <mxGeometry x="55" width="160" height="50" as="geometry" />
        </mxCell>
        <mxCell id="K2plUtH_WGhE_T3_-bDJ-198" value="" style="rounded=0;whiteSpace=wrap;html=1;" parent="lmyk1vAzdVTI69mNU8-5-22" vertex="1">
          <mxGeometry y="5" width="20" height="130" as="geometry" />
        </mxCell>
        <mxCell id="K2plUtH_WGhE_T3_-bDJ-199" value="&lt;span style=&quot;font-size: 13px&quot;&gt;[available]:&lt;/span&gt;" style="html=1;verticalAlign=bottom;endArrow=open;dashed=1;endSize=8;rounded=0;exitX=-0.05;exitY=0.615;exitDx=0;exitDy=0;exitPerimeter=0;entryX=1;entryY=0.608;entryDx=0;entryDy=0;entryPerimeter=0;" parent="lmyk1vAzdVTI69mNU8-5-22" source="K2plUtH_WGhE_T3_-bDJ-194" target="K2plUtH_WGhE_T3_-bDJ-198" edge="1">
          <mxGeometry x="-0.0476" relative="1" as="geometry">
            <mxPoint x="-615" y="75" as="sourcePoint" />
            <mxPoint x="15" y="95" as="targetPoint" />
            <Array as="points">
              <mxPoint x="75" y="85" />
            </Array>
            <mxPoint as="offset" />
          </mxGeometry>
        </mxCell>
        <mxCell id="K2plUtH_WGhE_T3_-bDJ-190" value="" style="rounded=0;whiteSpace=wrap;html=1;" parent="lmyk1vAzdVTI69mNU8-5-22" vertex="1">
          <mxGeometry x="485" y="5" width="20" height="130" as="geometry" />
        </mxCell>
        <mxCell id="K2plUtH_WGhE_T3_-bDJ-211" value="" style="endArrow=classic;html=1;rounded=0;exitX=0.95;exitY=0.308;exitDx=0;exitDy=0;exitPerimeter=0;entryX=0;entryY=0.308;entryDx=0;entryDy=0;entryPerimeter=0;" parent="lmyk1vAzdVTI69mNU8-5-22" source="K2plUtH_WGhE_T3_-bDJ-190" target="lmyk1vAzdVTI69mNU8-5-10" edge="1">
          <mxGeometry width="50" height="50" relative="1" as="geometry">
            <mxPoint x="-165" y="-65" as="sourcePoint" />
            <mxPoint x="795" y="32" as="targetPoint" />
          </mxGeometry>
        </mxCell>
        <mxCell id="K2plUtH_WGhE_T3_-bDJ-204" value="" style="endArrow=classic;html=1;rounded=0;entryX=0.05;entryY=0.312;entryDx=0;entryDy=0;entryPerimeter=0;exitX=1.05;exitY=0.312;exitDx=0;exitDy=0;exitPerimeter=0;" parent="lmyk1vAzdVTI69mNU8-5-22" edge="1" target="K2plUtH_WGhE_T3_-bDJ-190" source="K2plUtH_WGhE_T3_-bDJ-194">
          <mxGeometry width="50" height="50" relative="1" as="geometry">
            <mxPoint x="255" y="34" as="sourcePoint" />
            <mxPoint x="595" y="34" as="targetPoint" />
            <Array as="points" />
          </mxGeometry>
        </mxCell>
        <mxCell id="K2plUtH_WGhE_T3_-bDJ-213" value="&lt;span style=&quot;font-size: 13px&quot;&gt;[available]:&lt;/span&gt;" style="html=1;verticalAlign=bottom;endArrow=open;dashed=1;endSize=8;rounded=0;entryX=1.1;entryY=0.615;entryDx=0;entryDy=0;entryPerimeter=0;exitX=0.05;exitY=0.619;exitDx=0;exitDy=0;exitPerimeter=0;" parent="lmyk1vAzdVTI69mNU8-5-22" edge="1" source="lmyk1vAzdVTI69mNU8-5-10">
          <mxGeometry relative="1" as="geometry">
            <mxPoint x="755" y="105" as="sourcePoint" />
            <mxPoint x="505" y="85" as="targetPoint" />
            <Array as="points">
              <mxPoint x="568" y="85.04999999999995" />
            </Array>
            <mxPoint as="offset" />
          </mxGeometry>
        </mxCell>
      </root>
    </mxGraphModel>
  </diagram>
</mxfile>
